<?xml version="1.0" encoding="utf-8"?>
<!-- Generator: Adobe Illustrator 26.0.3, SVG Export Plug-In . SVG Version: 6.00 Build 0)  -->
<svg version="1.1" id="Layer_1" xmlns="http://www.w3.org/2000/svg" xmlns:xlink="http://www.w3.org/1999/xlink" x="0px" y="0px"
	 viewBox="0 0 120 40" style="enable-background:new 0 0 120 40;" xml:space="preserve">
<style type="text/css">
	.st0{fill:#FFD600;}
	.st1{fill-rule:evenodd;clip-rule:evenodd;fill:#FFD600;}
</style>
<g>
	<g>
		<path class="st0" d="M29.1,29.1V8.9h7.2c2.9,0,4.3,0.8,4.3,3.6v3c0,1.6-1.1,3-3.2,3.1c2.2,0.1,3.5,1.4,3.5,3.1v3.4
			c0,2.7-0.9,3.9-4.3,3.9H29.1z M37.6,13.6c0-1.5-0.5-2.3-2.2-2.3H32v6.2h3.1c1.6,0,2.4-0.6,2.4-2.3V13.6z M32,20v6.6h3.2
			c1.7,0,2.5-0.2,2.5-1.9V22c0-1.5-1.1-2-2.6-2H32z"/>
		<path class="st0" d="M43.2,29.1V13.2h3v15.9H43.2z"/>
		<path class="st0" d="M47.9,15.3v-2.4h2.5V8.9h2.9v3.9h3.2v2.4h-3.2v9.2c0,1.9,1.8,2.3,3.2,2.3v2.4c-2.8,0-6.1-0.5-6.1-4.2v-9.7
			H47.9z"/>
		<path class="st0" d="M68.8,8.9h3v9.2l5.8-9.2h3.3l-6.1,9.7l6.2,10.4h-3.4l-5.8-9.8v9.8h-3V8.9z"/>
		<path class="st0" d="M81.8,16.6c0-2.7,2.6-4.1,5.6-4.1c2.9,0,5.6,1.4,5.6,4.1v8.9c0,2.7-2.7,4-5.6,4c-2.9,0-5.6-1.3-5.6-4V16.6z
			 M84.8,24.9c0,1.3,1.1,2.1,2.6,2.1c1.6,0,2.7-0.8,2.7-2.1v-7.9c0-1.3-1.1-2.1-2.7-2.1c-1.6,0-2.6,0.8-2.6,2.1V24.9z"/>
		<path class="st0" d="M95.5,29.1V12.8h2.9v1.3l4.1-1.1c2.8-0.7,4,0.4,4,2.6v13.5h-2.9V16.9c0-1.1-0.4-1.6-1.7-1.2l-3.5,0.9v12.5
			H95.5z"/>
		<path class="st0" d="M109,28.6v-0.9h2.9v0.4c0,1.1,0.9,2,2.6,2c1.6,0,2.6-0.9,2.6-2v-2.7l-4.3,1c-2.7,0.6-3.9-0.6-3.9-2.6v-7.5
			c0-2.2,1.3-3.4,3.5-3.4h7.5v15.7c0,2.6-2.4,3.9-5.5,3.9C111.4,32.5,109,31.2,109,28.6z M117.1,23v-7.8h-3.2c-1.6,0-2.1,0.5-2.1,2
			v5.4c0,1.1,0.6,1.5,1.7,1.2L117.1,23z"/>
		<path class="st0" d="M46.4,10.5c0-0.9-0.7-1.6-1.6-1.6c-0.9,0-1.6,0.7-1.6,1.6c0,0.9,0.7,1.6,1.6,1.6
			C45.7,12.1,46.4,11.4,46.4,10.5z"/>
		<rect x="59.2" y="17" class="st0" width="6.6" height="2.6"/>
	</g>
	<g>
		<g>
			<path class="st1" d="M15.6,11.5c-0.2,0.9-0.4,1.8-0.6,2.6c0.7,0.4,1.4,0.6,2,1c1.7,1.1,1.9,3.5,0.4,4.8c-0.3,0.2-0.6,0.3-0.9,0.5
				c0,0,0.1,0.1,0.1,0.1c1.4,0.9,1.8,2,1.4,3.6c-0.6,2.2-2.1,2.9-4.1,2.9c-0.5,0-1-0.1-1.5-0.1c-0.2,0-0.3,0.1-0.3,0.3
				c-0.2,0.7-0.3,1.4-0.5,2.1c0,0.2-0.1,0.3-0.4,0.3c-0.5-0.1-0.9-0.2-1.4-0.3c0.2-0.7,0.3-1.4,0.4-2.1c0.1-0.6,0.1-0.6-0.5-0.8
				c-0.2,0-0.4-0.1-0.6-0.1C9,27.1,8.8,28,8.6,28.9C8,28.8,7.5,28.7,7,28.5c-0.1,0-0.1-0.2-0.1-0.4c0.2-0.8,0.3-1.6,0.5-2.4
				c-1.1-0.3-2.2-0.5-3.4-0.8c0.3-0.6,0.5-1.3,0.8-1.9c0-0.1,0.2-0.1,0.3-0.1c0.3,0,0.6,0.1,0.9,0.2c0.5,0.1,0.7,0,0.8-0.5
				c0.4-2,0.9-3.9,1.3-5.9c0.1-0.4,0.2-0.8,0.3-1.2c0.1-0.7-0.1-1-0.7-1.1c-0.2-0.1-0.4-0.1-0.6-0.1c-0.2,0-0.4-0.1-0.6-0.2
				c0.1-0.6,0.3-1.2,0.4-1.8c1.1,0.2,2.2,0.5,3.3,0.7c0.2-0.8,0.4-1.6,0.5-2.4c0.1-0.3,0.2-0.4,0.5-0.3c0.3,0.1,0.7,0.2,1,0.2
				c0.3,0,0.3,0.1,0.3,0.4c-0.2,0.8-0.3,1.5-0.5,2.3c0.4,0.1,0.8,0.2,1.2,0.2c0.2-0.7,0.3-1.4,0.5-2.1c0.1-0.5,0.1-0.5,0.6-0.4
				C14.7,11.3,15.1,11.4,15.6,11.5z M10.5,20.4c-0.3,1.3-0.5,2.5-0.8,3.7c0.5,0.1,1,0.2,1.5,0.3c0.8,0.1,1.7,0.3,2.5,0
				c0.7-0.2,1-0.7,1-1.4c0-0.9-0.6-1.3-1.3-1.6C12.5,21,11.5,20.8,10.5,20.4z M10.9,18.7c0.3,0.1,0.5,0.1,0.7,0.2
				c0.8,0.1,1.6,0.3,2.3,0.1c0.5-0.1,0.9-0.4,1.1-0.9c0.2-0.6,0.1-1.1-0.4-1.5c-0.9-0.8-2-0.9-3-1.1C11.3,16.6,11.1,17.7,10.9,18.7z
				"/>
		</g>
		<g>
			<path class="st0" d="M12.5,29.7L12.5,29.7c-0.3-0.1-0.5-0.1-0.7-0.2l-0.7-0.1l-0.3-0.1l0.2-0.8c0.1-0.5,0.2-1,0.3-1.5
				c0-0.2,0.1-0.4,0.1-0.5c0,0-0.2-0.1-0.4-0.1l-0.4-0.1L10,29.1L9.4,29c-0.4-0.1-0.8-0.2-1.2-0.3C8,28.7,8,28.3,8,28.2
				c0.1-0.6,0.2-1.2,0.4-1.8l0.1-0.5l-3.4-0.8l0.3-0.6c0.2-0.5,0.4-1,0.6-1.4c0.1-0.2,0.4-0.2,0.5-0.2c0.1,0,0.2,0,0.3,0.1l0.4,0.1
				l0.1,0c0.4,0.1,0.5,0,0.6-0.4c0.3-1.3,0.5-2.5,0.8-3.8l0.5-2.1c0-0.2,0.1-0.3,0.1-0.5c0.1-0.2,0.1-0.5,0.2-0.7
				c0.1-0.6,0-0.8-0.6-0.9c-0.1,0-0.2,0-0.2-0.1l-0.2,0l-0.1,0c-0.1,0-0.3-0.1-0.5-0.1l-0.3-0.1L8,12.2l3.3,0.7
				c0-0.2,0.1-0.4,0.1-0.5c0.1-0.6,0.3-1.1,0.4-1.7c0-0.1,0.1-0.3,0.2-0.4c0.1-0.1,0.2-0.1,0.4,0l0.1,0c0.3,0.1,0.7,0.2,1,0.2l0,0
				c0.1,0,0.3,0.1,0.3,0.2c0.1,0.1,0.1,0.3,0,0.4c-0.1,0.5-0.2,1.1-0.4,1.6l-0.1,0.5l0.9,0.2l0.1-0.5c0.1-0.5,0.2-1,0.3-1.4
				c0.1-0.5,0.2-0.7,0.7-0.6l0.1,0c0.3,0.1,0.5,0.1,0.8,0.2l0.6,0.1L16.4,14c0.2,0.1,0.4,0.2,0.5,0.3c0.5,0.2,0.9,0.4,1.4,0.7
				c0.9,0.6,1.4,1.5,1.5,2.5c0.1,1-0.3,1.9-1.1,2.5c-0.2,0.2-0.4,0.3-0.6,0.4c0,0,0,0-0.1,0c1.4,0.9,1.8,2,1.4,3.7
				c-0.6,2.1-1.9,3-4.3,3c-0.5,0-1-0.1-1.5-0.1c-0.1,0-0.1,0-0.2,0.1c-0.1,0.3-0.1,0.6-0.2,0.9c-0.1,0.4-0.2,0.8-0.3,1.2
				c0,0.1-0.1,0.3-0.2,0.4C12.8,29.7,12.7,29.7,12.5,29.7z M11.9,29.2c0.2,0,0.4,0.1,0.7,0.2l0,0c0.1,0,0.1,0,0.1,0c0,0,0,0,0.1-0.2
				c0.1-0.4,0.2-0.8,0.3-1.2c0.1-0.3,0.1-0.6,0.2-0.9c0-0.1,0.1-0.5,0.5-0.4c0.5,0.1,1,0.1,1.4,0.1c2.2,0.1,3.4-0.8,3.9-2.7
				c0.4-1.5,0-2.5-1.3-3.4c0,0-0.1-0.1-0.1-0.1l-0.2-0.2l0.2-0.1c0.1-0.1,0.2-0.1,0.3-0.2c0.2-0.1,0.4-0.2,0.5-0.3
				c0.7-0.6,1-1.4,1-2.2c-0.1-0.9-0.5-1.7-1.3-2.3c-0.4-0.3-0.9-0.5-1.3-0.7c-0.2-0.1-0.4-0.2-0.7-0.3L16,14.2l0.6-2.6l-0.3-0.1
				c-0.3-0.1-0.6-0.1-0.8-0.2l-0.1,0c-0.1,0-0.2,0-0.2,0c0,0,0,0.2-0.1,0.3c-0.1,0.5-0.2,1-0.3,1.5l-0.2,0.8L13,13.6l0-0.2l0.1-0.7
				c0.1-0.6,0.2-1.1,0.4-1.6c0-0.1,0-0.2,0-0.2c0,0,0,0-0.1-0.1l0,0c-0.4-0.1-0.7-0.1-1.1-0.2l0,0c-0.1,0-0.1,0-0.1,0
				c0,0,0,0-0.1,0.2c-0.1,0.6-0.2,1.1-0.4,1.7c-0.1,0.2-0.1,0.5-0.2,0.7l0,0.2l-3.3-0.7l-0.3,1.5l0,0c0.2,0,0.3,0.1,0.5,0.1l0.1,0
				l0.2,0.1c0.1,0,0.2,0,0.3,0.1c0.7,0.2,1,0.6,0.8,1.3c0,0.2-0.1,0.5-0.2,0.7c0,0.1-0.1,0.3-0.1,0.4L9.1,19
				c-0.3,1.3-0.5,2.5-0.8,3.8c-0.1,0.6-0.4,0.8-1,0.7l-0.2,0l-0.4-0.1c-0.1,0-0.2,0-0.3-0.1c0,0-0.1,0-0.1,0
				c-0.2,0.4-0.4,0.9-0.6,1.4l-0.1,0.3l3.3,0.7l-0.2,0.8c-0.1,0.6-0.3,1.2-0.4,1.8c0,0,0,0.1,0,0.2c0.4,0.1,0.8,0.2,1.1,0.3l0.2,0
				l0.6-2.7l0.8,0.2c0.7,0.2,0.8,0.3,0.6,1c-0.1,0.5-0.2,1-0.3,1.5l-0.1,0.5L11.9,29.2z M11.8,24.5c-0.1,0-0.3-0.1-0.4-0.1
				c-0.1,0-0.3-0.1-0.4-0.1l-0.2-0.1l0.9-4l0.2,0.1c0.3,0.1,0.6,0.2,0.9,0.3c0.7,0.2,1.3,0.4,2,0.6c0.9,0.4,1.4,0.9,1.4,1.8
				c0,0.8-0.4,1.3-1.1,1.6c-0.9,0.3-1.7,0.2-2.5,0l0,0C12.2,24.5,12,24.5,11.8,24.5z M11.1,24c0.1,0,0.2,0,0.3,0.1
				c0.3,0.1,0.7,0.1,1,0.2l0,0c0.8,0.1,1.6,0.2,2.4,0c0.6-0.2,0.9-0.6,0.9-1.2c0-0.7-0.4-1.1-1.2-1.5c-0.6-0.2-1.3-0.4-2-0.6
				c-0.2-0.1-0.5-0.1-0.7-0.2L11.1,24z M12.7,19.1c-0.1,0-0.2-0.1-0.4-0.1c-0.1,0-0.2,0-0.2-0.1l-0.2,0l0.8-3.5l0.4,0.1
				c0.3,0,0.5,0.1,0.8,0.1c0.7,0.1,1.4,0.4,2.1,0.9c0.5,0.4,0.6,1,0.4,1.6c-0.2,0.6-0.6,0.9-1.2,1.1c-0.8,0.2-1.5,0-2.2-0.1
				L12.7,19.1z M12.3,18.6C12.4,18.6,12.4,18.6,12.3,18.6c0.2,0.1,0.3,0.1,0.4,0.1l0.3,0.1c0.7,0.1,1.4,0.3,2.1,0.1
				c0.5-0.1,0.8-0.4,0.9-0.8c0.2-0.5,0.1-1-0.3-1.3c-0.6-0.5-1.3-0.7-1.9-0.9c-0.3-0.1-0.5-0.1-0.8-0.1l-0.1,0L12.3,18.6z"/>
		</g>
		<path class="st0" d="M9.9,32.2c-6.7-1.4-11.1-8.1-9.6-14.9c1.4-6.7,8.1-11.1,14.9-9.6c6.7,1.4,11.1,8.1,9.6,14.9
			C23.3,29.4,16.6,33.7,9.9,32.2z M14.9,8.8C8.7,7.4,2.6,11.4,1.3,17.6c-1.3,6.2,2.6,12.3,8.8,13.6c6.2,1.3,12.3-2.6,13.6-8.8
			C25.1,16.2,21.1,10.1,14.9,8.8z"/>
	</g>
</g>
</svg>
